<mxfile host="65bd71144e">
    <diagram id="R2lEEEUBdFMjLlhIrx00" name="Page-1">
        <mxGraphModel dx="2821" dy="1769" grid="1" gridSize="10" guides="1" tooltips="1" connect="1" arrows="1" fold="1" page="1" pageScale="1" pageWidth="850" pageHeight="1100" math="0" shadow="0" extFonts="Permanent Marker^https://fonts.googleapis.com/css?family=Permanent+Marker">
            <root>
                <mxCell id="0"/>
                <mxCell id="1" parent="0"/>
                <mxCell id="jogKyepHeoKBIfneeKKx-7" style="edgeStyle=orthogonalEdgeStyle;rounded=0;orthogonalLoop=1;jettySize=auto;html=1;exitX=0;exitY=1;exitDx=0;exitDy=0;entryX=1;entryY=0;entryDx=0;entryDy=0;fontFamily=Times New Roman;" parent="1" source="jogKyepHeoKBIfneeKKx-1" target="jogKyepHeoKBIfneeKKx-5" edge="1">
                    <mxGeometry relative="1" as="geometry">
                        <Array as="points">
                            <mxPoint x="333" y="640"/>
                        </Array>
                    </mxGeometry>
                </mxCell>
                <mxCell id="jogKyepHeoKBIfneeKKx-8" style="edgeStyle=orthogonalEdgeStyle;rounded=0;orthogonalLoop=1;jettySize=auto;html=1;exitX=1;exitY=1;exitDx=0;exitDy=0;entryX=0;entryY=0;entryDx=0;entryDy=0;fontFamily=Times New Roman;" parent="1" source="jogKyepHeoKBIfneeKKx-1" target="jogKyepHeoKBIfneeKKx-6" edge="1">
                    <mxGeometry relative="1" as="geometry">
                        <Array as="points">
                            <mxPoint x="518" y="640"/>
                        </Array>
                    </mxGeometry>
                </mxCell>
                <mxCell id="jogKyepHeoKBIfneeKKx-9" style="edgeStyle=orthogonalEdgeStyle;rounded=0;orthogonalLoop=1;jettySize=auto;html=1;exitX=0.5;exitY=0;exitDx=0;exitDy=0;entryX=0.5;entryY=1;entryDx=0;entryDy=0;fontFamily=Times New Roman;" parent="1" source="jogKyepHeoKBIfneeKKx-1" target="jogKyepHeoKBIfneeKKx-4" edge="1">
                    <mxGeometry relative="1" as="geometry"/>
                </mxCell>
                <mxCell id="jogKyepHeoKBIfneeKKx-1" value="" style="rounded=1;whiteSpace=wrap;html=1;fillColor=#e51400;fontColor=#ffffff;strokeColor=#B20000;" parent="1" vertex="1">
                    <mxGeometry x="333" y="420" width="185" height="110" as="geometry"/>
                </mxCell>
                <mxCell id="jogKyepHeoKBIfneeKKx-2" value="&lt;h1&gt;&lt;font face=&quot;Times New Roman&quot;&gt;WORSPACE INICIAL&lt;/font&gt;&lt;/h1&gt;" style="text;html=1;strokeColor=none;fillColor=none;align=center;verticalAlign=middle;whiteSpace=wrap;rounded=0;fontColor=#000000;" parent="1" vertex="1">
                    <mxGeometry x="353" y="460" width="145" height="30" as="geometry"/>
                </mxCell>
                <mxCell id="jogKyepHeoKBIfneeKKx-11" style="edgeStyle=orthogonalEdgeStyle;rounded=0;orthogonalLoop=1;jettySize=auto;html=1;exitX=0.5;exitY=0;exitDx=0;exitDy=0;fontFamily=Times New Roman;" parent="1" source="jogKyepHeoKBIfneeKKx-4" target="jogKyepHeoKBIfneeKKx-10" edge="1">
                    <mxGeometry relative="1" as="geometry"/>
                </mxCell>
                <mxCell id="jogKyepHeoKBIfneeKKx-26" style="edgeStyle=orthogonalEdgeStyle;rounded=0;orthogonalLoop=1;jettySize=auto;html=1;exitX=1;exitY=0;exitDx=0;exitDy=0;entryX=0.025;entryY=0.638;entryDx=0;entryDy=0;entryPerimeter=0;fontFamily=Times New Roman;" parent="1" source="jogKyepHeoKBIfneeKKx-4" target="jogKyepHeoKBIfneeKKx-25" edge="1">
                    <mxGeometry relative="1" as="geometry"/>
                </mxCell>
                <mxCell id="jogKyepHeoKBIfneeKKx-29" style="edgeStyle=orthogonalEdgeStyle;rounded=0;orthogonalLoop=1;jettySize=auto;html=1;exitX=0;exitY=0;exitDx=0;exitDy=0;entryX=1;entryY=1;entryDx=0;entryDy=0;fontFamily=Times New Roman;" parent="1" source="jogKyepHeoKBIfneeKKx-4" target="jogKyepHeoKBIfneeKKx-27" edge="1">
                    <mxGeometry relative="1" as="geometry"/>
                </mxCell>
                <mxCell id="jogKyepHeoKBIfneeKKx-30" style="edgeStyle=orthogonalEdgeStyle;rounded=0;orthogonalLoop=1;jettySize=auto;html=1;exitX=0;exitY=0.25;exitDx=0;exitDy=0;entryX=1;entryY=0.5;entryDx=0;entryDy=0;fontFamily=Times New Roman;" parent="1" source="jogKyepHeoKBIfneeKKx-4" target="jogKyepHeoKBIfneeKKx-28" edge="1">
                    <mxGeometry relative="1" as="geometry"/>
                </mxCell>
                <mxCell id="jogKyepHeoKBIfneeKKx-4" value="&lt;h2&gt;INICIO&lt;/h2&gt;" style="rounded=0;whiteSpace=wrap;html=1;fontFamily=Times New Roman;fillColor=#fa6800;fontColor=#000000;strokeColor=#C73500;" parent="1" vertex="1">
                    <mxGeometry x="365" y="290" width="120" height="60" as="geometry"/>
                </mxCell>
                <mxCell id="jogKyepHeoKBIfneeKKx-67" style="edgeStyle=orthogonalEdgeStyle;rounded=0;orthogonalLoop=1;jettySize=auto;html=1;exitX=0;exitY=0.5;exitDx=0;exitDy=0;entryX=1.014;entryY=0.032;entryDx=0;entryDy=0;entryPerimeter=0;fontFamily=Times New Roman;" parent="1" source="jogKyepHeoKBIfneeKKx-5" target="jogKyepHeoKBIfneeKKx-57" edge="1">
                    <mxGeometry relative="1" as="geometry"/>
                </mxCell>
                <mxCell id="jogKyepHeoKBIfneeKKx-5" value="&lt;h2&gt;CATEGORÍAS&lt;/h2&gt;" style="rounded=0;whiteSpace=wrap;html=1;fontFamily=Times New Roman;fillColor=#fa6800;fontColor=#000000;strokeColor=#C73500;" parent="1" vertex="1">
                    <mxGeometry x="190" y="640" width="120" height="60" as="geometry"/>
                </mxCell>
                <mxCell id="jogKyepHeoKBIfneeKKx-113" style="edgeStyle=orthogonalEdgeStyle;rounded=0;orthogonalLoop=1;jettySize=auto;html=1;exitX=1;exitY=0.5;exitDx=0;exitDy=0;entryX=0;entryY=0.5;entryDx=0;entryDy=0;entryPerimeter=0;fontFamily=Times New Roman;" parent="1" source="jogKyepHeoKBIfneeKKx-6" target="jogKyepHeoKBIfneeKKx-112" edge="1">
                    <mxGeometry relative="1" as="geometry"/>
                </mxCell>
                <mxCell id="jogKyepHeoKBIfneeKKx-6" value="&lt;h2&gt;VENDER&lt;/h2&gt;" style="rounded=0;whiteSpace=wrap;html=1;fontFamily=Times New Roman;fillColor=#fa6800;fontColor=#000000;strokeColor=#C73500;" parent="1" vertex="1">
                    <mxGeometry x="550" y="640" width="120" height="60" as="geometry"/>
                </mxCell>
                <mxCell id="jogKyepHeoKBIfneeKKx-20" style="edgeStyle=orthogonalEdgeStyle;rounded=0;orthogonalLoop=1;jettySize=auto;html=1;exitX=0;exitY=0;exitDx=0;exitDy=0;entryX=0.975;entryY=0.76;entryDx=0;entryDy=0;entryPerimeter=0;fontFamily=Times New Roman;" parent="1" source="jogKyepHeoKBIfneeKKx-10" target="jogKyepHeoKBIfneeKKx-16" edge="1">
                    <mxGeometry relative="1" as="geometry"/>
                </mxCell>
                <mxCell id="jogKyepHeoKBIfneeKKx-21" style="edgeStyle=orthogonalEdgeStyle;rounded=0;orthogonalLoop=1;jettySize=auto;html=1;exitX=1;exitY=0;exitDx=0;exitDy=0;entryX=0.017;entryY=0.81;entryDx=0;entryDy=0;entryPerimeter=0;fontFamily=Times New Roman;" parent="1" source="jogKyepHeoKBIfneeKKx-10" target="jogKyepHeoKBIfneeKKx-17" edge="1">
                    <mxGeometry relative="1" as="geometry"/>
                </mxCell>
                <mxCell id="jogKyepHeoKBIfneeKKx-10" value="&lt;h3&gt;Log in usuario&lt;/h3&gt;" style="ellipse;whiteSpace=wrap;html=1;fontFamily=Times New Roman;fillColor=#d5e8d4;gradientColor=#97d077;strokeColor=#82b366;fontColor=#000000;" parent="1" vertex="1">
                    <mxGeometry x="365" y="-120" width="120" height="50" as="geometry"/>
                </mxCell>
                <mxCell id="jogKyepHeoKBIfneeKKx-22" style="edgeStyle=orthogonalEdgeStyle;rounded=0;orthogonalLoop=1;jettySize=auto;html=1;exitX=0;exitY=0.5;exitDx=0;exitDy=0;fontFamily=Times New Roman;entryX=0.5;entryY=0;entryDx=0;entryDy=0;" parent="1" source="jogKyepHeoKBIfneeKKx-12" target="jogKyepHeoKBIfneeKKx-23" edge="1">
                    <mxGeometry relative="1" as="geometry">
                        <mxPoint x="90" y="120" as="targetPoint"/>
                    </mxGeometry>
                </mxCell>
                <mxCell id="jogKyepHeoKBIfneeKKx-12" value="&lt;h5&gt;Perfil&lt;/h5&gt;" style="ellipse;whiteSpace=wrap;html=1;aspect=fixed;fontFamily=Times New Roman;fillColor=#ffcd28;gradientColor=#ffa500;strokeColor=#d79b00;fontColor=#000000;" parent="1" vertex="1">
                    <mxGeometry x="390" y="-380" width="80" height="80" as="geometry"/>
                </mxCell>
                <mxCell id="jogKyepHeoKBIfneeKKx-18" style="edgeStyle=orthogonalEdgeStyle;rounded=0;orthogonalLoop=1;jettySize=auto;html=1;exitX=1;exitY=0.35;exitDx=0;exitDy=0;exitPerimeter=0;entryX=0.5;entryY=1;entryDx=0;entryDy=0;fontFamily=Times New Roman;" parent="1" source="jogKyepHeoKBIfneeKKx-16" target="jogKyepHeoKBIfneeKKx-12" edge="1">
                    <mxGeometry relative="1" as="geometry"/>
                </mxCell>
                <mxCell id="jogKyepHeoKBIfneeKKx-16" value="&lt;h4&gt;Mail&lt;/h4&gt;" style="shape=tape;whiteSpace=wrap;html=1;fontFamily=Times New Roman;fillColor=#e6d0de;gradientColor=#d5739d;strokeColor=#996185;fontColor=#000000;" parent="1" vertex="1">
                    <mxGeometry x="270" y="-270" width="120" height="100" as="geometry"/>
                </mxCell>
                <mxCell id="jogKyepHeoKBIfneeKKx-19" style="edgeStyle=orthogonalEdgeStyle;rounded=0;orthogonalLoop=1;jettySize=auto;html=1;exitX=0;exitY=0.35;exitDx=0;exitDy=0;exitPerimeter=0;entryX=0.5;entryY=1;entryDx=0;entryDy=0;fontFamily=Times New Roman;" parent="1" source="jogKyepHeoKBIfneeKKx-17" target="jogKyepHeoKBIfneeKKx-12" edge="1">
                    <mxGeometry relative="1" as="geometry"/>
                </mxCell>
                <mxCell id="jogKyepHeoKBIfneeKKx-17" value="&lt;h4&gt;Contraseña&lt;/h4&gt;" style="shape=tape;whiteSpace=wrap;html=1;fontFamily=Times New Roman;fillColor=#e6d0de;gradientColor=#d5739d;strokeColor=#996185;fontColor=#000000;" parent="1" vertex="1">
                    <mxGeometry x="510" y="-270" width="120" height="100" as="geometry"/>
                </mxCell>
                <mxCell id="jogKyepHeoKBIfneeKKx-24" style="edgeStyle=orthogonalEdgeStyle;rounded=0;orthogonalLoop=1;jettySize=auto;html=1;exitX=0.5;exitY=1;exitDx=0;exitDy=0;entryX=0;entryY=0.5;entryDx=0;entryDy=0;fontFamily=Times New Roman;" parent="1" source="jogKyepHeoKBIfneeKKx-23" target="jogKyepHeoKBIfneeKKx-10" edge="1">
                    <mxGeometry relative="1" as="geometry"/>
                </mxCell>
                <mxCell id="jogKyepHeoKBIfneeKKx-23" value="Modificar perfil" style="shape=process;whiteSpace=wrap;html=1;backgroundOutline=1;fontFamily=Times New Roman;" parent="1" vertex="1">
                    <mxGeometry x="140" y="-150" width="120" height="60" as="geometry"/>
                </mxCell>
                <mxCell id="jogKyepHeoKBIfneeKKx-25" value="&lt;h3&gt;Autos&lt;/h3&gt;" style="ellipse;whiteSpace=wrap;html=1;fontFamily=Times New Roman;fillColor=#d5e8d4;gradientColor=#97d077;strokeColor=#82b366;fontColor=#000000;" parent="1" vertex="1">
                    <mxGeometry x="600" y="-10" width="120" height="80" as="geometry"/>
                </mxCell>
                <mxCell id="jogKyepHeoKBIfneeKKx-27" value="&lt;h3&gt;Juguetes&lt;/h3&gt;" style="ellipse;whiteSpace=wrap;html=1;fontFamily=Times New Roman;fillColor=#d5e8d4;gradientColor=#97d077;strokeColor=#82b366;fontColor=#000000;" parent="1" vertex="1">
                    <mxGeometry x="213" y="-20" width="120" height="80" as="geometry"/>
                </mxCell>
                <mxCell id="jogKyepHeoKBIfneeKKx-28" value="&lt;h3&gt;Muebles&lt;/h3&gt;" style="ellipse;whiteSpace=wrap;html=1;fontFamily=Times New Roman;fillColor=#d5e8d4;gradientColor=#97d077;strokeColor=#82b366;fontColor=#000000;" parent="1" vertex="1">
                    <mxGeometry x="-70" y="140" width="120" height="80" as="geometry"/>
                </mxCell>
                <mxCell id="jogKyepHeoKBIfneeKKx-69" style="edgeStyle=orthogonalEdgeStyle;rounded=0;orthogonalLoop=1;jettySize=auto;html=1;exitX=0.5;exitY=0;exitDx=0;exitDy=0;entryX=0;entryY=0.5;entryDx=0;entryDy=0;fontFamily=Times New Roman;" parent="1" source="jogKyepHeoKBIfneeKKx-57" target="jogKyepHeoKBIfneeKKx-68" edge="1">
                    <mxGeometry relative="1" as="geometry"/>
                </mxCell>
                <mxCell id="jogKyepHeoKBIfneeKKx-57" value="Lista de elementos" style="swimlane;fontStyle=1;childLayout=stackLayout;horizontal=1;startSize=30;horizontalStack=0;resizeParent=1;resizeParentMax=0;resizeLast=0;collapsible=1;marginBottom=0;fontFamily=Times New Roman;fillColor=#d5e8d4;gradientColor=#97d077;strokeColor=#82b366;fontColor=#000000;" parent="1" vertex="1">
                    <mxGeometry x="-170" y="660" width="140" height="310" as="geometry"/>
                </mxCell>
                <mxCell id="jogKyepHeoKBIfneeKKx-58" value="Autos" style="text;strokeColor=#82b366;fillColor=#d5e8d4;align=left;verticalAlign=middle;spacingLeft=4;spacingRight=4;overflow=hidden;points=[[0,0.5],[1,0.5]];portConstraint=eastwest;rotatable=0;fontFamily=Times New Roman;gradientColor=#97d077;fontStyle=1;fontColor=#000000;" parent="jogKyepHeoKBIfneeKKx-57" vertex="1">
                    <mxGeometry y="30" width="140" height="30" as="geometry"/>
                </mxCell>
                <mxCell id="jogKyepHeoKBIfneeKKx-59" value="Juguetes" style="text;strokeColor=#82b366;fillColor=#d5e8d4;align=left;verticalAlign=middle;spacingLeft=4;spacingRight=4;overflow=hidden;points=[[0,0.5],[1,0.5]];portConstraint=eastwest;rotatable=0;fontFamily=Times New Roman;gradientColor=#97d077;fontStyle=1;fontColor=#000000;" parent="jogKyepHeoKBIfneeKKx-57" vertex="1">
                    <mxGeometry y="60" width="140" height="30" as="geometry"/>
                </mxCell>
                <mxCell id="jogKyepHeoKBIfneeKKx-60" value="Muebles" style="text;strokeColor=#82b366;fillColor=#d5e8d4;align=left;verticalAlign=middle;spacingLeft=4;spacingRight=4;overflow=hidden;points=[[0,0.5],[1,0.5]];portConstraint=eastwest;rotatable=0;fontFamily=Times New Roman;gradientColor=#97d077;fontStyle=1;fontColor=#000000;" parent="jogKyepHeoKBIfneeKKx-57" vertex="1">
                    <mxGeometry y="90" width="140" height="40" as="geometry"/>
                </mxCell>
                <mxCell id="jogKyepHeoKBIfneeKKx-61" value="Herramientas" style="text;strokeColor=#82b366;fillColor=#d5e8d4;align=left;verticalAlign=middle;spacingLeft=4;spacingRight=4;overflow=hidden;points=[[0,0.5],[1,0.5]];portConstraint=eastwest;rotatable=0;fontFamily=Times New Roman;gradientColor=#97d077;fontStyle=1;fontColor=#000000;" parent="jogKyepHeoKBIfneeKKx-57" vertex="1">
                    <mxGeometry y="130" width="140" height="30" as="geometry"/>
                </mxCell>
                <mxCell id="jogKyepHeoKBIfneeKKx-62" value="Computadoras" style="text;strokeColor=#82b366;fillColor=#d5e8d4;align=left;verticalAlign=middle;spacingLeft=4;spacingRight=4;overflow=hidden;points=[[0,0.5],[1,0.5]];portConstraint=eastwest;rotatable=0;fontFamily=Times New Roman;gradientColor=#97d077;fontStyle=1;fontColor=#000000;" parent="jogKyepHeoKBIfneeKKx-57" vertex="1">
                    <mxGeometry y="160" width="140" height="30" as="geometry"/>
                </mxCell>
                <mxCell id="jogKyepHeoKBIfneeKKx-63" value="Vestimenta" style="text;strokeColor=#82b366;fillColor=#d5e8d4;align=left;verticalAlign=middle;spacingLeft=4;spacingRight=4;overflow=hidden;points=[[0,0.5],[1,0.5]];portConstraint=eastwest;rotatable=0;fontFamily=Times New Roman;gradientColor=#97d077;fontStyle=1;fontColor=#000000;" parent="jogKyepHeoKBIfneeKKx-57" vertex="1">
                    <mxGeometry y="190" width="140" height="30" as="geometry"/>
                </mxCell>
                <mxCell id="jogKyepHeoKBIfneeKKx-64" value="Electrodomésticos" style="text;strokeColor=#82b366;fillColor=#d5e8d4;align=left;verticalAlign=middle;spacingLeft=4;spacingRight=4;overflow=hidden;points=[[0,0.5],[1,0.5]];portConstraint=eastwest;rotatable=0;fontFamily=Times New Roman;gradientColor=#97d077;fontStyle=1;fontColor=#000000;" parent="jogKyepHeoKBIfneeKKx-57" vertex="1">
                    <mxGeometry y="220" width="140" height="30" as="geometry"/>
                </mxCell>
                <mxCell id="jogKyepHeoKBIfneeKKx-65" value="Deporte" style="text;strokeColor=#82b366;fillColor=#d5e8d4;align=left;verticalAlign=middle;spacingLeft=4;spacingRight=4;overflow=hidden;points=[[0,0.5],[1,0.5]];portConstraint=eastwest;rotatable=0;fontFamily=Times New Roman;gradientColor=#97d077;fontStyle=1;fontColor=#000000;" parent="jogKyepHeoKBIfneeKKx-57" vertex="1">
                    <mxGeometry y="250" width="140" height="30" as="geometry"/>
                </mxCell>
                <mxCell id="jogKyepHeoKBIfneeKKx-66" value="Celulares" style="text;strokeColor=#82b366;fillColor=#d5e8d4;align=left;verticalAlign=middle;spacingLeft=4;spacingRight=4;overflow=hidden;points=[[0,0.5],[1,0.5]];portConstraint=eastwest;rotatable=0;fontFamily=Times New Roman;gradientColor=#97d077;fontStyle=1;fontColor=#000000;" parent="jogKyepHeoKBIfneeKKx-57" vertex="1">
                    <mxGeometry y="280" width="140" height="30" as="geometry"/>
                </mxCell>
                <mxCell id="jogKyepHeoKBIfneeKKx-70" style="edgeStyle=orthogonalEdgeStyle;rounded=0;orthogonalLoop=1;jettySize=auto;html=1;exitX=1;exitY=0.5;exitDx=0;exitDy=0;entryX=0.25;entryY=0;entryDx=0;entryDy=0;fontFamily=Times New Roman;" parent="1" source="jogKyepHeoKBIfneeKKx-68" target="jogKyepHeoKBIfneeKKx-5" edge="1">
                    <mxGeometry relative="1" as="geometry"/>
                </mxCell>
                <mxCell id="jogKyepHeoKBIfneeKKx-68" value="Filtrar y ordenar por cantidad de artículos" style="shape=process;whiteSpace=wrap;html=1;backgroundOutline=1;fontFamily=Times New Roman;" parent="1" vertex="1">
                    <mxGeometry x="-60" y="550" width="120" height="60" as="geometry"/>
                </mxCell>
                <mxCell id="jogKyepHeoKBIfneeKKx-83" style="edgeStyle=orthogonalEdgeStyle;rounded=0;orthogonalLoop=1;jettySize=auto;html=1;exitX=0.75;exitY=0;exitDx=0;exitDy=0;exitPerimeter=0;entryX=0.417;entryY=1.05;entryDx=0;entryDy=0;entryPerimeter=0;fontFamily=Times New Roman;" parent="1" source="jogKyepHeoKBIfneeKKx-72" target="jogKyepHeoKBIfneeKKx-82" edge="1">
                    <mxGeometry relative="1" as="geometry"/>
                </mxCell>
                <mxCell id="jogKyepHeoKBIfneeKKx-92" style="edgeStyle=orthogonalEdgeStyle;rounded=0;orthogonalLoop=1;jettySize=auto;html=1;exitX=0.25;exitY=1;exitDx=0;exitDy=0;exitPerimeter=0;entryX=0.5;entryY=0;entryDx=0;entryDy=0;fontFamily=Times New Roman;" parent="1" source="jogKyepHeoKBIfneeKKx-72" target="jogKyepHeoKBIfneeKKx-91" edge="1">
                    <mxGeometry relative="1" as="geometry"/>
                </mxCell>
                <mxCell id="jogKyepHeoKBIfneeKKx-93" style="edgeStyle=orthogonalEdgeStyle;rounded=0;orthogonalLoop=1;jettySize=auto;html=1;exitX=0;exitY=0.5;exitDx=0;exitDy=0;exitPerimeter=0;entryX=1;entryY=0.5;entryDx=0;entryDy=0;fontFamily=Times New Roman;" parent="1" source="jogKyepHeoKBIfneeKKx-72" target="jogKyepHeoKBIfneeKKx-90" edge="1">
                    <mxGeometry relative="1" as="geometry"/>
                </mxCell>
                <mxCell id="jogKyepHeoKBIfneeKKx-72" value="&lt;h4&gt;Productos&lt;/h4&gt;" style="shape=tape;whiteSpace=wrap;html=1;fontFamily=Times New Roman;fillColor=#e6d0de;gradientColor=#d5739d;strokeColor=#996185;fontColor=#000000;" parent="1" vertex="1">
                    <mxGeometry x="-560" y="780" width="120" height="100" as="geometry"/>
                </mxCell>
                <mxCell id="jogKyepHeoKBIfneeKKx-73" style="edgeStyle=orthogonalEdgeStyle;rounded=0;orthogonalLoop=1;jettySize=auto;html=1;exitX=0;exitY=0.5;exitDx=0;exitDy=0;entryX=1;entryY=0.44;entryDx=0;entryDy=0;entryPerimeter=0;fontFamily=Times New Roman;" parent="1" source="jogKyepHeoKBIfneeKKx-59" target="jogKyepHeoKBIfneeKKx-72" edge="1">
                    <mxGeometry relative="1" as="geometry"/>
                </mxCell>
                <mxCell id="jogKyepHeoKBIfneeKKx-74" style="edgeStyle=orthogonalEdgeStyle;rounded=0;orthogonalLoop=1;jettySize=auto;html=1;exitX=0;exitY=0.5;exitDx=0;exitDy=0;entryX=1.008;entryY=0.44;entryDx=0;entryDy=0;entryPerimeter=0;fontFamily=Times New Roman;" parent="1" source="jogKyepHeoKBIfneeKKx-60" target="jogKyepHeoKBIfneeKKx-72" edge="1">
                    <mxGeometry relative="1" as="geometry"/>
                </mxCell>
                <mxCell id="jogKyepHeoKBIfneeKKx-75" style="edgeStyle=orthogonalEdgeStyle;rounded=0;orthogonalLoop=1;jettySize=auto;html=1;exitX=0;exitY=0.5;exitDx=0;exitDy=0;entryX=1;entryY=0.5;entryDx=0;entryDy=0;entryPerimeter=0;fontFamily=Times New Roman;" parent="1" source="jogKyepHeoKBIfneeKKx-58" target="jogKyepHeoKBIfneeKKx-72" edge="1">
                    <mxGeometry relative="1" as="geometry"/>
                </mxCell>
                <mxCell id="jogKyepHeoKBIfneeKKx-76" style="edgeStyle=orthogonalEdgeStyle;rounded=0;orthogonalLoop=1;jettySize=auto;html=1;exitX=0;exitY=0.5;exitDx=0;exitDy=0;entryX=1;entryY=0.5;entryDx=0;entryDy=0;entryPerimeter=0;fontFamily=Times New Roman;" parent="1" source="jogKyepHeoKBIfneeKKx-61" target="jogKyepHeoKBIfneeKKx-72" edge="1">
                    <mxGeometry relative="1" as="geometry"/>
                </mxCell>
                <mxCell id="jogKyepHeoKBIfneeKKx-77" style="edgeStyle=orthogonalEdgeStyle;rounded=0;orthogonalLoop=1;jettySize=auto;html=1;exitX=0;exitY=0.5;exitDx=0;exitDy=0;entryX=1;entryY=0.5;entryDx=0;entryDy=0;entryPerimeter=0;fontFamily=Times New Roman;" parent="1" source="jogKyepHeoKBIfneeKKx-62" target="jogKyepHeoKBIfneeKKx-72" edge="1">
                    <mxGeometry relative="1" as="geometry"/>
                </mxCell>
                <mxCell id="jogKyepHeoKBIfneeKKx-78" style="edgeStyle=orthogonalEdgeStyle;rounded=0;orthogonalLoop=1;jettySize=auto;html=1;exitX=0;exitY=0.5;exitDx=0;exitDy=0;fontFamily=Times New Roman;entryX=1;entryY=0.5;entryDx=0;entryDy=0;entryPerimeter=0;" parent="1" source="jogKyepHeoKBIfneeKKx-63" target="jogKyepHeoKBIfneeKKx-72" edge="1">
                    <mxGeometry relative="1" as="geometry">
                        <mxPoint x="-360" y="880" as="targetPoint"/>
                    </mxGeometry>
                </mxCell>
                <mxCell id="jogKyepHeoKBIfneeKKx-79" style="edgeStyle=orthogonalEdgeStyle;rounded=0;orthogonalLoop=1;jettySize=auto;html=1;exitX=0;exitY=0.5;exitDx=0;exitDy=0;entryX=1;entryY=0.5;entryDx=0;entryDy=0;entryPerimeter=0;fontFamily=Times New Roman;" parent="1" source="jogKyepHeoKBIfneeKKx-64" target="jogKyepHeoKBIfneeKKx-72" edge="1">
                    <mxGeometry relative="1" as="geometry"/>
                </mxCell>
                <mxCell id="jogKyepHeoKBIfneeKKx-80" style="edgeStyle=orthogonalEdgeStyle;rounded=0;orthogonalLoop=1;jettySize=auto;html=1;exitX=0;exitY=0.5;exitDx=0;exitDy=0;fontFamily=Times New Roman;entryX=1;entryY=0.5;entryDx=0;entryDy=0;entryPerimeter=0;" parent="1" source="jogKyepHeoKBIfneeKKx-65" target="jogKyepHeoKBIfneeKKx-72" edge="1">
                    <mxGeometry relative="1" as="geometry">
                        <mxPoint x="-860" y="850" as="targetPoint"/>
                    </mxGeometry>
                </mxCell>
                <mxCell id="jogKyepHeoKBIfneeKKx-81" style="edgeStyle=orthogonalEdgeStyle;rounded=0;orthogonalLoop=1;jettySize=auto;html=1;exitX=0;exitY=0.5;exitDx=0;exitDy=0;entryX=1;entryY=0.5;entryDx=0;entryDy=0;entryPerimeter=0;fontFamily=Times New Roman;" parent="1" source="jogKyepHeoKBIfneeKKx-66" target="jogKyepHeoKBIfneeKKx-72" edge="1">
                    <mxGeometry relative="1" as="geometry"/>
                </mxCell>
                <mxCell id="jogKyepHeoKBIfneeKKx-84" style="edgeStyle=orthogonalEdgeStyle;rounded=0;orthogonalLoop=1;jettySize=auto;html=1;exitX=1;exitY=0.5;exitDx=0;exitDy=0;entryX=0;entryY=0;entryDx=0;entryDy=0;fontFamily=Times New Roman;" parent="1" source="jogKyepHeoKBIfneeKKx-82" target="jogKyepHeoKBIfneeKKx-57" edge="1">
                    <mxGeometry relative="1" as="geometry"/>
                </mxCell>
                <mxCell id="jogKyepHeoKBIfneeKKx-82" value="Filtrar y ordenar por precio y relevancia" style="shape=process;whiteSpace=wrap;html=1;backgroundOutline=1;fontFamily=Times New Roman;" parent="1" vertex="1">
                    <mxGeometry x="-520" y="620" width="120" height="60" as="geometry"/>
                </mxCell>
                <mxCell id="jogKyepHeoKBIfneeKKx-87" value="" style="endArrow=none;dashed=1;html=1;dashPattern=1 3;strokeWidth=2;rounded=0;fontFamily=Times New Roman;exitX=1;exitY=1;exitDx=0;exitDy=0;entryX=1;entryY=0.5;entryDx=0;entryDy=0;" parent="1" source="jogKyepHeoKBIfneeKKx-28" target="jogKyepHeoKBIfneeKKx-60" edge="1">
                    <mxGeometry width="50" height="50" relative="1" as="geometry">
                        <mxPoint x="-240" y="700" as="sourcePoint"/>
                        <mxPoint x="90" y="771" as="targetPoint"/>
                        <Array as="points">
                            <mxPoint x="100" y="720"/>
                        </Array>
                    </mxGeometry>
                </mxCell>
                <mxCell id="jogKyepHeoKBIfneeKKx-88" value="" style="endArrow=none;dashed=1;html=1;dashPattern=1 3;strokeWidth=2;rounded=0;fontFamily=Times New Roman;entryX=0;entryY=1;entryDx=0;entryDy=0;exitX=1;exitY=0.25;exitDx=0;exitDy=0;" parent="1" source="jogKyepHeoKBIfneeKKx-57" target="jogKyepHeoKBIfneeKKx-27" edge="1">
                    <mxGeometry width="50" height="50" relative="1" as="geometry">
                        <mxPoint x="50" y="710" as="sourcePoint"/>
                        <mxPoint x="-190" y="430" as="targetPoint"/>
                        <Array as="points">
                            <mxPoint x="70" y="690"/>
                        </Array>
                    </mxGeometry>
                </mxCell>
                <mxCell id="jogKyepHeoKBIfneeKKx-89" value="" style="endArrow=none;dashed=1;html=1;dashPattern=1 3;strokeWidth=2;rounded=0;fontFamily=Times New Roman;entryX=0;entryY=1;entryDx=0;entryDy=0;exitX=1;exitY=0.5;exitDx=0;exitDy=0;" parent="1" source="jogKyepHeoKBIfneeKKx-58" target="jogKyepHeoKBIfneeKKx-25" edge="1">
                    <mxGeometry width="50" height="50" relative="1" as="geometry">
                        <mxPoint x="140" y="480" as="sourcePoint"/>
                        <mxPoint x="190" y="430" as="targetPoint"/>
                        <Array as="points">
                            <mxPoint x="60" y="630"/>
                            <mxPoint x="270" y="360"/>
                        </Array>
                    </mxGeometry>
                </mxCell>
                <mxCell id="jogKyepHeoKBIfneeKKx-108" style="edgeStyle=orthogonalEdgeStyle;rounded=0;orthogonalLoop=1;jettySize=auto;html=1;exitX=0;exitY=0.5;exitDx=0;exitDy=0;entryX=0.75;entryY=0;entryDx=0;entryDy=0;fontFamily=Times New Roman;" parent="1" source="jogKyepHeoKBIfneeKKx-90" target="jogKyepHeoKBIfneeKKx-100" edge="1">
                    <mxGeometry relative="1" as="geometry"/>
                </mxCell>
                <mxCell id="jogKyepHeoKBIfneeKKx-90" value="&lt;h5&gt;Ver&lt;/h5&gt;" style="ellipse;whiteSpace=wrap;html=1;aspect=fixed;fontFamily=Times New Roman;fillColor=#ffcd28;gradientColor=#ffa500;strokeColor=#d79b00;fontColor=#000000;" parent="1" vertex="1">
                    <mxGeometry x="-810" y="790" width="80" height="80" as="geometry"/>
                </mxCell>
                <mxCell id="jogKyepHeoKBIfneeKKx-96" style="edgeStyle=orthogonalEdgeStyle;rounded=0;orthogonalLoop=1;jettySize=auto;html=1;exitX=0;exitY=1;exitDx=0;exitDy=0;entryX=0.625;entryY=0.2;entryDx=0;entryDy=0;entryPerimeter=0;fontFamily=Times New Roman;" parent="1" source="jogKyepHeoKBIfneeKKx-91" target="jogKyepHeoKBIfneeKKx-94" edge="1">
                    <mxGeometry relative="1" as="geometry"/>
                </mxCell>
                <mxCell id="jogKyepHeoKBIfneeKKx-97" style="edgeStyle=orthogonalEdgeStyle;rounded=0;orthogonalLoop=1;jettySize=auto;html=1;exitX=1;exitY=1;exitDx=0;exitDy=0;entryX=0.25;entryY=0.25;entryDx=0;entryDy=0;entryPerimeter=0;fontFamily=Times New Roman;" parent="1" source="jogKyepHeoKBIfneeKKx-91" target="jogKyepHeoKBIfneeKKx-95" edge="1">
                    <mxGeometry relative="1" as="geometry"/>
                </mxCell>
                <mxCell id="jogKyepHeoKBIfneeKKx-91" value="&lt;h5&gt;Realizar&lt;/h5&gt;" style="ellipse;whiteSpace=wrap;html=1;aspect=fixed;fontFamily=Times New Roman;fillColor=#ffcd28;gradientColor=#ffa500;strokeColor=#d79b00;fontColor=#000000;" parent="1" vertex="1">
                    <mxGeometry x="-570" y="990" width="80" height="80" as="geometry"/>
                </mxCell>
                <mxCell id="jogKyepHeoKBIfneeKKx-94" value="&lt;p&gt;Comentar&lt;/p&gt;" style="ellipse;shape=cloud;whiteSpace=wrap;html=1;fontFamily=Times New Roman;fillColor=#f5f5f5;gradientColor=#b3b3b3;strokeColor=#666666;fontColor=#000000;" parent="1" vertex="1">
                    <mxGeometry x="-670" y="1130" width="140" height="80" as="geometry"/>
                </mxCell>
                <mxCell id="jogKyepHeoKBIfneeKKx-95" value="Calificar" style="ellipse;shape=cloud;whiteSpace=wrap;html=1;fontFamily=Times New Roman;fillColor=#f5f5f5;gradientColor=#b3b3b3;strokeColor=#666666;fontColor=#000000;" parent="1" vertex="1">
                    <mxGeometry x="-500" y="1130" width="120" height="80" as="geometry"/>
                </mxCell>
                <mxCell id="jogKyepHeoKBIfneeKKx-100" value="Info. de Producto" style="swimlane;fontStyle=1;childLayout=stackLayout;horizontal=1;startSize=30;horizontalStack=0;resizeParent=1;resizeParentMax=0;resizeLast=0;collapsible=1;marginBottom=0;fontFamily=Times New Roman;fillColor=#f5f5f5;gradientColor=#b3b3b3;strokeColor=#666666;fontColor=#000000;" parent="1" vertex="1">
                    <mxGeometry x="-1090" y="780" width="140" height="300" as="geometry"/>
                </mxCell>
                <mxCell id="jogKyepHeoKBIfneeKKx-101" value="Precio" style="text;strokeColor=#666666;fillColor=#f5f5f5;align=left;verticalAlign=middle;spacingLeft=4;spacingRight=4;overflow=hidden;points=[[0,0.5],[1,0.5]];portConstraint=eastwest;rotatable=0;fontFamily=Times New Roman;gradientColor=#b3b3b3;fontStyle=1;fontColor=#000000;" parent="jogKyepHeoKBIfneeKKx-100" vertex="1">
                    <mxGeometry y="30" width="140" height="30" as="geometry"/>
                </mxCell>
                <mxCell id="jogKyepHeoKBIfneeKKx-102" value="Descripción" style="text;strokeColor=#666666;fillColor=#f5f5f5;align=left;verticalAlign=middle;spacingLeft=4;spacingRight=4;overflow=hidden;points=[[0,0.5],[1,0.5]];portConstraint=eastwest;rotatable=0;fontFamily=Times New Roman;gradientColor=#b3b3b3;fontStyle=1;fontColor=#000000;" parent="jogKyepHeoKBIfneeKKx-100" vertex="1">
                    <mxGeometry y="60" width="140" height="30" as="geometry"/>
                </mxCell>
                <mxCell id="jogKyepHeoKBIfneeKKx-103" value="Vendidos" style="text;strokeColor=#666666;fillColor=#f5f5f5;align=left;verticalAlign=middle;spacingLeft=4;spacingRight=4;overflow=hidden;points=[[0,0.5],[1,0.5]];portConstraint=eastwest;rotatable=0;fontFamily=Times New Roman;gradientColor=#b3b3b3;fontStyle=1;fontColor=#000000;" parent="jogKyepHeoKBIfneeKKx-100" vertex="1">
                    <mxGeometry y="90" width="140" height="30" as="geometry"/>
                </mxCell>
                <mxCell id="jogKyepHeoKBIfneeKKx-104" value="Imágenes" style="text;strokeColor=#666666;fillColor=#f5f5f5;align=left;verticalAlign=middle;spacingLeft=4;spacingRight=4;overflow=hidden;points=[[0,0.5],[1,0.5]];portConstraint=eastwest;rotatable=0;fontFamily=Times New Roman;gradientColor=#b3b3b3;fontStyle=1;fontColor=#000000;" parent="jogKyepHeoKBIfneeKKx-100" vertex="1">
                    <mxGeometry y="120" width="140" height="30" as="geometry"/>
                </mxCell>
                <mxCell id="jogKyepHeoKBIfneeKKx-105" value="Comentarios" style="text;strokeColor=#666666;fillColor=#f5f5f5;align=left;verticalAlign=middle;spacingLeft=4;spacingRight=4;overflow=hidden;points=[[0,0.5],[1,0.5]];portConstraint=eastwest;rotatable=0;fontFamily=Times New Roman;gradientColor=#b3b3b3;fontStyle=1;fontColor=#000000;" parent="jogKyepHeoKBIfneeKKx-100" vertex="1">
                    <mxGeometry y="150" width="140" height="30" as="geometry"/>
                </mxCell>
                <mxCell id="jogKyepHeoKBIfneeKKx-106" value="Calificación" style="text;strokeColor=#666666;fillColor=#f5f5f5;align=left;verticalAlign=middle;spacingLeft=4;spacingRight=4;overflow=hidden;points=[[0,0.5],[1,0.5]];portConstraint=eastwest;rotatable=0;fontFamily=Times New Roman;gradientColor=#b3b3b3;fontStyle=1;fontColor=#000000;" parent="jogKyepHeoKBIfneeKKx-100" vertex="1">
                    <mxGeometry y="180" width="140" height="30" as="geometry"/>
                </mxCell>
                <mxCell id="jogKyepHeoKBIfneeKKx-107" value="Fecha" style="text;strokeColor=#666666;fillColor=#f5f5f5;align=left;verticalAlign=middle;spacingLeft=4;spacingRight=4;overflow=hidden;points=[[0,0.5],[1,0.5]];portConstraint=eastwest;rotatable=0;fontFamily=Times New Roman;gradientColor=#b3b3b3;fontStyle=1;fontColor=#000000;" parent="jogKyepHeoKBIfneeKKx-100" vertex="1">
                    <mxGeometry y="210" width="140" height="30" as="geometry"/>
                </mxCell>
                <mxCell id="jogKyepHeoKBIfneeKKx-109" value="Relacionados" style="text;strokeColor=#666666;fillColor=#f5f5f5;align=left;verticalAlign=middle;spacingLeft=4;spacingRight=4;overflow=hidden;points=[[0,0.5],[1,0.5]];portConstraint=eastwest;rotatable=0;fontFamily=Times New Roman;gradientColor=#b3b3b3;fontStyle=1;fontColor=#000000;" parent="jogKyepHeoKBIfneeKKx-100" vertex="1">
                    <mxGeometry y="240" width="140" height="30" as="geometry"/>
                </mxCell>
                <mxCell id="jogKyepHeoKBIfneeKKx-125" value="Nombre" style="text;strokeColor=#666666;fillColor=#f5f5f5;align=left;verticalAlign=middle;spacingLeft=4;spacingRight=4;overflow=hidden;points=[[0,0.5],[1,0.5]];portConstraint=eastwest;rotatable=0;fontFamily=Times New Roman;gradientColor=#b3b3b3;fontStyle=1;fontColor=#000000;" parent="jogKyepHeoKBIfneeKKx-100" vertex="1">
                    <mxGeometry y="270" width="140" height="30" as="geometry"/>
                </mxCell>
                <mxCell id="jogKyepHeoKBIfneeKKx-123" style="edgeStyle=orthogonalEdgeStyle;rounded=0;orthogonalLoop=1;jettySize=auto;html=1;exitX=0.25;exitY=1;exitDx=0;exitDy=0;exitPerimeter=0;entryX=0.25;entryY=0;entryDx=0;entryDy=0;fontFamily=Times New Roman;" parent="1" source="jogKyepHeoKBIfneeKKx-112" target="jogKyepHeoKBIfneeKKx-114" edge="1">
                    <mxGeometry relative="1" as="geometry"/>
                </mxCell>
                <mxCell id="jogKyepHeoKBIfneeKKx-152" style="edgeStyle=orthogonalEdgeStyle;rounded=0;orthogonalLoop=1;jettySize=auto;html=1;exitX=1;exitY=0.5;exitDx=0;exitDy=0;exitPerimeter=0;entryX=0;entryY=0.5;entryDx=0;entryDy=0;fontFamily=Times New Roman;" parent="1" source="jogKyepHeoKBIfneeKKx-112" target="jogKyepHeoKBIfneeKKx-150" edge="1">
                    <mxGeometry relative="1" as="geometry"/>
                </mxCell>
                <mxCell id="jogKyepHeoKBIfneeKKx-112" value="&lt;h4&gt;Productos&lt;/h4&gt;" style="shape=tape;whiteSpace=wrap;html=1;fontFamily=Times New Roman;fillColor=#e6d0de;gradientColor=#d5739d;strokeColor=#996185;fontColor=#000000;" parent="1" vertex="1">
                    <mxGeometry x="820" y="620" width="120" height="100" as="geometry"/>
                </mxCell>
                <mxCell id="jogKyepHeoKBIfneeKKx-114" value="Info. de Producto" style="swimlane;fontStyle=1;childLayout=stackLayout;horizontal=1;startSize=30;horizontalStack=0;resizeParent=1;resizeParentMax=0;resizeLast=0;collapsible=1;marginBottom=0;fontFamily=Times New Roman;fillColor=#f5f5f5;gradientColor=#b3b3b3;strokeColor=#666666;fontColor=#000000;" parent="1" vertex="1">
                    <mxGeometry x="820" y="780" width="140" height="420" as="geometry"/>
                </mxCell>
                <mxCell id="jogKyepHeoKBIfneeKKx-115" value="Precio" style="text;strokeColor=#666666;fillColor=#f5f5f5;align=left;verticalAlign=middle;spacingLeft=4;spacingRight=4;overflow=hidden;points=[[0,0.5],[1,0.5]];portConstraint=eastwest;rotatable=0;fontFamily=Times New Roman;gradientColor=#b3b3b3;fontStyle=1;fontColor=#000000;" parent="jogKyepHeoKBIfneeKKx-114" vertex="1">
                    <mxGeometry y="30" width="140" height="30" as="geometry"/>
                </mxCell>
                <mxCell id="jogKyepHeoKBIfneeKKx-116" value="Descripción" style="text;strokeColor=#666666;fillColor=#f5f5f5;align=left;verticalAlign=middle;spacingLeft=4;spacingRight=4;overflow=hidden;points=[[0,0.5],[1,0.5]];portConstraint=eastwest;rotatable=0;fontFamily=Times New Roman;gradientColor=#b3b3b3;fontStyle=1;fontColor=#000000;" parent="jogKyepHeoKBIfneeKKx-114" vertex="1">
                    <mxGeometry y="60" width="140" height="30" as="geometry"/>
                </mxCell>
                <mxCell id="jogKyepHeoKBIfneeKKx-117" value="Vendidos" style="text;strokeColor=#666666;fillColor=#f5f5f5;align=left;verticalAlign=middle;spacingLeft=4;spacingRight=4;overflow=hidden;points=[[0,0.5],[1,0.5]];portConstraint=eastwest;rotatable=0;fontFamily=Times New Roman;gradientColor=#b3b3b3;fontStyle=1;fontColor=#000000;" parent="jogKyepHeoKBIfneeKKx-114" vertex="1">
                    <mxGeometry y="90" width="140" height="30" as="geometry"/>
                </mxCell>
                <mxCell id="jogKyepHeoKBIfneeKKx-118" value="Imágenes" style="text;strokeColor=#666666;fillColor=#f5f5f5;align=left;verticalAlign=middle;spacingLeft=4;spacingRight=4;overflow=hidden;points=[[0,0.5],[1,0.5]];portConstraint=eastwest;rotatable=0;fontFamily=Times New Roman;gradientColor=#b3b3b3;fontStyle=1;fontColor=#000000;" parent="jogKyepHeoKBIfneeKKx-114" vertex="1">
                    <mxGeometry y="120" width="140" height="30" as="geometry"/>
                </mxCell>
                <mxCell id="jogKyepHeoKBIfneeKKx-119" value="Comentarios" style="text;strokeColor=#666666;fillColor=#f5f5f5;align=left;verticalAlign=middle;spacingLeft=4;spacingRight=4;overflow=hidden;points=[[0,0.5],[1,0.5]];portConstraint=eastwest;rotatable=0;fontFamily=Times New Roman;gradientColor=#b3b3b3;fontStyle=1;fontColor=#000000;" parent="jogKyepHeoKBIfneeKKx-114" vertex="1">
                    <mxGeometry y="150" width="140" height="30" as="geometry"/>
                </mxCell>
                <mxCell id="jogKyepHeoKBIfneeKKx-120" value="Calificación" style="text;strokeColor=#666666;fillColor=#f5f5f5;align=left;verticalAlign=middle;spacingLeft=4;spacingRight=4;overflow=hidden;points=[[0,0.5],[1,0.5]];portConstraint=eastwest;rotatable=0;fontFamily=Times New Roman;gradientColor=#b3b3b3;fontStyle=1;fontColor=#000000;" parent="jogKyepHeoKBIfneeKKx-114" vertex="1">
                    <mxGeometry y="180" width="140" height="30" as="geometry"/>
                </mxCell>
                <mxCell id="jogKyepHeoKBIfneeKKx-121" value="Fecha" style="text;strokeColor=#666666;fillColor=#f5f5f5;align=left;verticalAlign=middle;spacingLeft=4;spacingRight=4;overflow=hidden;points=[[0,0.5],[1,0.5]];portConstraint=eastwest;rotatable=0;fontFamily=Times New Roman;gradientColor=#b3b3b3;fontStyle=1;fontColor=#000000;" parent="jogKyepHeoKBIfneeKKx-114" vertex="1">
                    <mxGeometry y="210" width="140" height="30" as="geometry"/>
                </mxCell>
                <mxCell id="jogKyepHeoKBIfneeKKx-122" value="Relacionados" style="text;strokeColor=#666666;fillColor=#f5f5f5;align=left;verticalAlign=middle;spacingLeft=4;spacingRight=4;overflow=hidden;points=[[0,0.5],[1,0.5]];portConstraint=eastwest;rotatable=0;fontFamily=Times New Roman;gradientColor=#b3b3b3;fontStyle=1;fontColor=#000000;" parent="jogKyepHeoKBIfneeKKx-114" vertex="1">
                    <mxGeometry y="240" width="140" height="30" as="geometry"/>
                </mxCell>
                <mxCell id="jogKyepHeoKBIfneeKKx-124" value="Nombre" style="text;strokeColor=#666666;fillColor=#f5f5f5;align=left;verticalAlign=middle;spacingLeft=4;spacingRight=4;overflow=hidden;points=[[0,0.5],[1,0.5]];portConstraint=eastwest;rotatable=0;fontFamily=Times New Roman;gradientColor=#b3b3b3;fontStyle=1;fontColor=#000000;" parent="jogKyepHeoKBIfneeKKx-114" vertex="1">
                    <mxGeometry y="270" width="140" height="30" as="geometry"/>
                </mxCell>
                <mxCell id="jogKyepHeoKBIfneeKKx-133" value="Categoría" style="text;strokeColor=#666666;fillColor=#f5f5f5;align=left;verticalAlign=middle;spacingLeft=4;spacingRight=4;overflow=hidden;points=[[0,0.5],[1,0.5]];portConstraint=eastwest;rotatable=0;fontFamily=Times New Roman;gradientColor=#b3b3b3;fontStyle=1;fontColor=#000000;" parent="jogKyepHeoKBIfneeKKx-114" vertex="1">
                    <mxGeometry y="300" width="140" height="30" as="geometry"/>
                </mxCell>
                <mxCell id="jogKyepHeoKBIfneeKKx-134" value="Stock" style="text;strokeColor=#666666;fillColor=#f5f5f5;align=left;verticalAlign=middle;spacingLeft=4;spacingRight=4;overflow=hidden;points=[[0,0.5],[1,0.5]];portConstraint=eastwest;rotatable=0;fontFamily=Times New Roman;gradientColor=#b3b3b3;fontStyle=1;fontColor=#000000;" parent="jogKyepHeoKBIfneeKKx-114" vertex="1">
                    <mxGeometry y="330" width="140" height="30" as="geometry"/>
                </mxCell>
                <mxCell id="jogKyepHeoKBIfneeKKx-135" value="Publicación" style="text;strokeColor=#666666;fillColor=#f5f5f5;align=left;verticalAlign=middle;spacingLeft=4;spacingRight=4;overflow=hidden;points=[[0,0.5],[1,0.5]];portConstraint=eastwest;rotatable=0;fontFamily=Times New Roman;gradientColor=#b3b3b3;fontStyle=1;fontColor=#000000;" parent="jogKyepHeoKBIfneeKKx-114" vertex="1">
                    <mxGeometry y="360" width="140" height="30" as="geometry"/>
                </mxCell>
                <mxCell id="jogKyepHeoKBIfneeKKx-136" value="Costos" style="text;strokeColor=#666666;fillColor=#f5f5f5;align=left;verticalAlign=middle;spacingLeft=4;spacingRight=4;overflow=hidden;points=[[0,0.5],[1,0.5]];portConstraint=eastwest;rotatable=0;fontFamily=Times New Roman;gradientColor=#b3b3b3;fontStyle=1;fontColor=#000000;" parent="jogKyepHeoKBIfneeKKx-114" vertex="1">
                    <mxGeometry y="390" width="140" height="30" as="geometry"/>
                </mxCell>
                <mxCell id="jogKyepHeoKBIfneeKKx-126" style="edgeStyle=orthogonalEdgeStyle;rounded=0;orthogonalLoop=1;jettySize=auto;html=1;exitX=0;exitY=0.5;exitDx=0;exitDy=0;fontFamily=Times New Roman;entryX=1;entryY=0.25;entryDx=0;entryDy=0;" parent="1" source="jogKyepHeoKBIfneeKKx-115" target="jogKyepHeoKBIfneeKKx-129" edge="1">
                    <mxGeometry relative="1" as="geometry">
                        <mxPoint x="730" y="820" as="targetPoint"/>
                    </mxGeometry>
                </mxCell>
                <mxCell id="jogKyepHeoKBIfneeKKx-129" value="Moneda" style="swimlane;fontStyle=1;childLayout=stackLayout;horizontal=1;startSize=30;horizontalStack=0;resizeParent=1;resizeParentMax=0;resizeLast=0;collapsible=1;marginBottom=0;fontFamily=Times New Roman;fillColor=#dae8fc;gradientColor=#7ea6e0;strokeColor=#6c8ebf;fontColor=#000000;" parent="1" vertex="1">
                    <mxGeometry x="540" y="770" width="140" height="90" as="geometry"/>
                </mxCell>
                <mxCell id="jogKyepHeoKBIfneeKKx-130" value="Dólares" style="text;strokeColor=#6c8ebf;fillColor=#dae8fc;align=left;verticalAlign=middle;spacingLeft=4;spacingRight=4;overflow=hidden;points=[[0,0.5],[1,0.5]];portConstraint=eastwest;rotatable=0;fontFamily=Times New Roman;gradientColor=#7ea6e0;fontStyle=1;fontColor=#000000;" parent="jogKyepHeoKBIfneeKKx-129" vertex="1">
                    <mxGeometry y="30" width="140" height="30" as="geometry"/>
                </mxCell>
                <mxCell id="jogKyepHeoKBIfneeKKx-131" value="Pesos UY" style="text;strokeColor=#6c8ebf;fillColor=#dae8fc;align=left;verticalAlign=middle;spacingLeft=4;spacingRight=4;overflow=hidden;points=[[0,0.5],[1,0.5]];portConstraint=eastwest;rotatable=0;fontFamily=Times New Roman;gradientColor=#7ea6e0;fontStyle=1;fontColor=#000000;" parent="jogKyepHeoKBIfneeKKx-129" vertex="1">
                    <mxGeometry y="60" width="140" height="30" as="geometry"/>
                </mxCell>
                <mxCell id="jogKyepHeoKBIfneeKKx-137" value="" style="endArrow=none;dashed=1;html=1;dashPattern=1 3;strokeWidth=2;rounded=0;fontFamily=Times New Roman;entryX=0;entryY=0.5;entryDx=0;entryDy=0;exitX=0.675;exitY=1.017;exitDx=0;exitDy=0;exitPerimeter=0;" parent="1" source="jogKyepHeoKBIfneeKKx-5" target="jogKyepHeoKBIfneeKKx-133" edge="1">
                    <mxGeometry width="50" height="50" relative="1" as="geometry">
                        <mxPoint x="90" y="940" as="sourcePoint"/>
                        <mxPoint x="570" y="1020" as="targetPoint"/>
                        <Array as="points">
                            <mxPoint x="270" y="1095"/>
                        </Array>
                    </mxGeometry>
                </mxCell>
                <mxCell id="jogKyepHeoKBIfneeKKx-138" value="Tipo" style="swimlane;fontStyle=1;childLayout=stackLayout;horizontal=1;startSize=30;horizontalStack=0;resizeParent=1;resizeParentMax=0;resizeLast=0;collapsible=1;marginBottom=0;fontFamily=Times New Roman;fillColor=#dae8fc;gradientColor=#7ea6e0;strokeColor=#6c8ebf;fontColor=#000000;" parent="1" vertex="1">
                    <mxGeometry x="365" y="1110" width="140" height="120" as="geometry"/>
                </mxCell>
                <mxCell id="jogKyepHeoKBIfneeKKx-139" value="Gold (13%)" style="text;strokeColor=#6c8ebf;fillColor=#dae8fc;align=left;verticalAlign=middle;spacingLeft=4;spacingRight=4;overflow=hidden;points=[[0,0.5],[1,0.5]];portConstraint=eastwest;rotatable=0;fontFamily=Times New Roman;gradientColor=#7ea6e0;fontStyle=1;fontColor=#000000;" parent="jogKyepHeoKBIfneeKKx-138" vertex="1">
                    <mxGeometry y="30" width="140" height="30" as="geometry"/>
                </mxCell>
                <mxCell id="jogKyepHeoKBIfneeKKx-140" value="Premium (7%)" style="text;strokeColor=#6c8ebf;fillColor=#dae8fc;align=left;verticalAlign=middle;spacingLeft=4;spacingRight=4;overflow=hidden;points=[[0,0.5],[1,0.5]];portConstraint=eastwest;rotatable=0;fontFamily=Times New Roman;gradientColor=#7ea6e0;fontStyle=1;fontColor=#000000;" parent="jogKyepHeoKBIfneeKKx-138" vertex="1">
                    <mxGeometry y="60" width="140" height="30" as="geometry"/>
                </mxCell>
                <mxCell id="jogKyepHeoKBIfneeKKx-141" value="Estándar (3%)" style="text;strokeColor=#6c8ebf;fillColor=#dae8fc;align=left;verticalAlign=middle;spacingLeft=4;spacingRight=4;overflow=hidden;points=[[0,0.5],[1,0.5]];portConstraint=eastwest;rotatable=0;fontFamily=Times New Roman;gradientColor=#7ea6e0;fontStyle=1;fontColor=#000000;" parent="jogKyepHeoKBIfneeKKx-138" vertex="1">
                    <mxGeometry y="90" width="140" height="30" as="geometry"/>
                </mxCell>
                <mxCell id="jogKyepHeoKBIfneeKKx-142" style="edgeStyle=orthogonalEdgeStyle;rounded=0;orthogonalLoop=1;jettySize=auto;html=1;exitX=0;exitY=0.5;exitDx=0;exitDy=0;entryX=1;entryY=0.5;entryDx=0;entryDy=0;fontFamily=Times New Roman;" parent="1" source="jogKyepHeoKBIfneeKKx-135" target="jogKyepHeoKBIfneeKKx-139" edge="1">
                    <mxGeometry relative="1" as="geometry"/>
                </mxCell>
                <mxCell id="jogKyepHeoKBIfneeKKx-143" value="Costos" style="swimlane;fontStyle=1;childLayout=stackLayout;horizontal=1;startSize=30;horizontalStack=0;resizeParent=1;resizeParentMax=0;resizeLast=0;collapsible=1;marginBottom=0;fontFamily=Times New Roman;fillColor=#dae8fc;gradientColor=#7ea6e0;strokeColor=#6c8ebf;fontColor=#000000;" parent="1" vertex="1">
                    <mxGeometry x="600" y="1270" width="140" height="120" as="geometry"/>
                </mxCell>
                <mxCell id="jogKyepHeoKBIfneeKKx-144" value="Precio Unitario" style="text;strokeColor=#6c8ebf;fillColor=#dae8fc;align=left;verticalAlign=middle;spacingLeft=4;spacingRight=4;overflow=hidden;points=[[0,0.5],[1,0.5]];portConstraint=eastwest;rotatable=0;fontFamily=Times New Roman;fontStyle=1;gradientColor=#7ea6e0;fontColor=#000000;" parent="jogKyepHeoKBIfneeKKx-143" vertex="1">
                    <mxGeometry y="30" width="140" height="30" as="geometry"/>
                </mxCell>
                <mxCell id="jogKyepHeoKBIfneeKKx-145" value="Porcentaje" style="text;strokeColor=#6c8ebf;fillColor=#dae8fc;align=left;verticalAlign=middle;spacingLeft=4;spacingRight=4;overflow=hidden;points=[[0,0.5],[1,0.5]];portConstraint=eastwest;rotatable=0;fontFamily=Times New Roman;fontStyle=1;gradientColor=#7ea6e0;fontColor=#000000;" parent="jogKyepHeoKBIfneeKKx-143" vertex="1">
                    <mxGeometry y="60" width="140" height="30" as="geometry"/>
                </mxCell>
                <mxCell id="jogKyepHeoKBIfneeKKx-146" value="Total" style="text;strokeColor=#6c8ebf;fillColor=#dae8fc;align=left;verticalAlign=middle;spacingLeft=4;spacingRight=4;overflow=hidden;points=[[0,0.5],[1,0.5]];portConstraint=eastwest;rotatable=0;fontFamily=Times New Roman;fontStyle=1;gradientColor=#7ea6e0;fontColor=#000000;" parent="jogKyepHeoKBIfneeKKx-143" vertex="1">
                    <mxGeometry y="90" width="140" height="30" as="geometry"/>
                </mxCell>
                <mxCell id="jogKyepHeoKBIfneeKKx-148" value="" style="endArrow=none;dashed=1;html=1;dashPattern=1 3;strokeWidth=2;rounded=0;fontFamily=Times New Roman;exitX=0;exitY=0.5;exitDx=0;exitDy=0;" parent="1" source="jogKyepHeoKBIfneeKKx-145" edge="1">
                    <mxGeometry width="50" height="50" relative="1" as="geometry">
                        <mxPoint x="245" y="1130" as="sourcePoint"/>
                        <mxPoint x="365" y="1130" as="targetPoint"/>
                        <Array as="points">
                            <mxPoint x="260" y="1340"/>
                            <mxPoint x="260" y="1130"/>
                        </Array>
                    </mxGeometry>
                </mxCell>
                <mxCell id="jogKyepHeoKBIfneeKKx-149" style="edgeStyle=orthogonalEdgeStyle;rounded=0;orthogonalLoop=1;jettySize=auto;html=1;exitX=0;exitY=0.5;exitDx=0;exitDy=0;entryX=0.5;entryY=0;entryDx=0;entryDy=0;fontFamily=Times New Roman;" parent="1" source="jogKyepHeoKBIfneeKKx-136" target="jogKyepHeoKBIfneeKKx-143" edge="1">
                    <mxGeometry relative="1" as="geometry"/>
                </mxCell>
                <mxCell id="jogKyepHeoKBIfneeKKx-157" style="edgeStyle=orthogonalEdgeStyle;rounded=0;orthogonalLoop=1;jettySize=auto;html=1;exitX=0.5;exitY=1;exitDx=0;exitDy=0;entryX=0.436;entryY=0.017;entryDx=0;entryDy=0;entryPerimeter=0;fontFamily=Times New Roman;" parent="1" source="jogKyepHeoKBIfneeKKx-150" target="jogKyepHeoKBIfneeKKx-153" edge="1">
                    <mxGeometry relative="1" as="geometry"/>
                </mxCell>
                <mxCell id="jogKyepHeoKBIfneeKKx-159" style="edgeStyle=orthogonalEdgeStyle;rounded=0;orthogonalLoop=1;jettySize=auto;html=1;exitX=1;exitY=0.5;exitDx=0;exitDy=0;entryX=0;entryY=0.5;entryDx=0;entryDy=0;fontFamily=Times New Roman;" parent="1" source="jogKyepHeoKBIfneeKKx-150" target="jogKyepHeoKBIfneeKKx-158" edge="1">
                    <mxGeometry relative="1" as="geometry"/>
                </mxCell>
                <mxCell id="jogKyepHeoKBIfneeKKx-150" value="&lt;h5&gt;Carrito&lt;/h5&gt;" style="ellipse;whiteSpace=wrap;html=1;aspect=fixed;fontFamily=Times New Roman;fillColor=#ffcd28;gradientColor=#ffa500;strokeColor=#d79b00;fontColor=#000000;" parent="1" vertex="1">
                    <mxGeometry x="1110" y="630" width="80" height="80" as="geometry"/>
                </mxCell>
                <mxCell id="jogKyepHeoKBIfneeKKx-153" value="Visualizar" style="swimlane;fontStyle=1;childLayout=stackLayout;horizontal=1;startSize=30;horizontalStack=0;resizeParent=1;resizeParentMax=0;resizeLast=0;collapsible=1;marginBottom=0;fontFamily=Times New Roman;fillColor=#f5f5f5;gradientColor=#b3b3b3;strokeColor=#666666;fontColor=#000000;" parent="1" vertex="1">
                    <mxGeometry x="1080" y="780" width="140" height="90" as="geometry"/>
                </mxCell>
                <mxCell id="jogKyepHeoKBIfneeKKx-154" value="Productos seleccionados" style="text;strokeColor=#666666;fillColor=#f5f5f5;align=left;verticalAlign=middle;spacingLeft=4;spacingRight=4;overflow=hidden;points=[[0,0.5],[1,0.5]];portConstraint=eastwest;rotatable=0;fontFamily=Times New Roman;gradientColor=#b3b3b3;fontStyle=1;fontColor=#000000;" parent="jogKyepHeoKBIfneeKKx-153" vertex="1">
                    <mxGeometry y="30" width="140" height="30" as="geometry"/>
                </mxCell>
                <mxCell id="jogKyepHeoKBIfneeKKx-155" value="Total de compra" style="text;strokeColor=#666666;fillColor=#f5f5f5;align=left;verticalAlign=middle;spacingLeft=4;spacingRight=4;overflow=hidden;points=[[0,0.5],[1,0.5]];portConstraint=eastwest;rotatable=0;fontFamily=Times New Roman;gradientColor=#b3b3b3;fontStyle=1;fontColor=#000000;" parent="jogKyepHeoKBIfneeKKx-153" vertex="1">
                    <mxGeometry y="60" width="140" height="30" as="geometry"/>
                </mxCell>
                <mxCell id="jogKyepHeoKBIfneeKKx-164" style="edgeStyle=orthogonalEdgeStyle;rounded=0;orthogonalLoop=1;jettySize=auto;html=1;exitX=0.625;exitY=1;exitDx=0;exitDy=0;entryX=0.25;entryY=0;entryDx=0;entryDy=0;fontFamily=Times New Roman;" parent="1" source="jogKyepHeoKBIfneeKKx-158" target="jogKyepHeoKBIfneeKKx-160" edge="1">
                    <mxGeometry relative="1" as="geometry"/>
                </mxCell>
                <mxCell id="jogKyepHeoKBIfneeKKx-158" value="COMPRAR" style="shape=hexagon;perimeter=hexagonPerimeter2;whiteSpace=wrap;html=1;fixedSize=1;fontFamily=Times New Roman;fillColor=#1ba1e2;fontColor=#000000;strokeColor=#006EAF;" parent="1" vertex="1">
                    <mxGeometry x="1330" y="630" width="120" height="80" as="geometry"/>
                </mxCell>
                <mxCell id="jogKyepHeoKBIfneeKKx-160" value="Seleccionar" style="swimlane;fontStyle=1;childLayout=stackLayout;horizontal=1;startSize=30;horizontalStack=0;resizeParent=1;resizeParentMax=0;resizeLast=0;collapsible=1;marginBottom=0;fontFamily=Times New Roman;fillColor=#f5f5f5;gradientColor=#b3b3b3;strokeColor=#666666;fontColor=#000000;" parent="1" vertex="1">
                    <mxGeometry x="1340" y="765" width="140" height="120" as="geometry"/>
                </mxCell>
                <mxCell id="jogKyepHeoKBIfneeKKx-161" value="Tipo de envío" style="text;strokeColor=#666666;fillColor=#f5f5f5;align=left;verticalAlign=middle;spacingLeft=4;spacingRight=4;overflow=hidden;points=[[0,0.5],[1,0.5]];portConstraint=eastwest;rotatable=0;fontFamily=Times New Roman;fontStyle=1;gradientColor=#b3b3b3;fontColor=#000000;" parent="jogKyepHeoKBIfneeKKx-160" vertex="1">
                    <mxGeometry y="30" width="140" height="30" as="geometry"/>
                </mxCell>
                <mxCell id="jogKyepHeoKBIfneeKKx-162" value="Dirección" style="text;strokeColor=#666666;fillColor=#f5f5f5;align=left;verticalAlign=middle;spacingLeft=4;spacingRight=4;overflow=hidden;points=[[0,0.5],[1,0.5]];portConstraint=eastwest;rotatable=0;fontFamily=Times New Roman;fontStyle=1;gradientColor=#b3b3b3;fontColor=#000000;" parent="jogKyepHeoKBIfneeKKx-160" vertex="1">
                    <mxGeometry y="60" width="140" height="30" as="geometry"/>
                </mxCell>
                <mxCell id="jogKyepHeoKBIfneeKKx-163" value="Forma de pago" style="text;strokeColor=#666666;fillColor=#f5f5f5;align=left;verticalAlign=middle;spacingLeft=4;spacingRight=4;overflow=hidden;points=[[0,0.5],[1,0.5]];portConstraint=eastwest;rotatable=0;fontFamily=Times New Roman;fontStyle=1;gradientColor=#b3b3b3;fontColor=#000000;" parent="jogKyepHeoKBIfneeKKx-160" vertex="1">
                    <mxGeometry y="90" width="140" height="30" as="geometry"/>
                </mxCell>
            </root>
        </mxGraphModel>
    </diagram>
</mxfile>